<svg width="134" height="46" viewBox="0 0 134 46" fill="none" xmlns="http://www.w3.org/2000/svg">
  <path d="M0 22.9156C0 10.2597 10.2597 0 22.9156 0H38.1926C42.4113 0 45.8312 3.41989 45.8312 7.63853V22.9156C45.8312 35.5715 35.5715 45.8312 22.9156 45.8312V45.8312C10.2597 45.8312 0 35.5715 0 22.9156V22.9156Z" fill="#FFD633"/>
  <path fill-rule="evenodd" clip-rule="evenodd" d="M33.309 28.7259C31.1603 30.8746 28.246 32.0818 25.2072 32.0818L25.2072 25.2071C26.4227 25.2071 27.5884 24.7243 28.4479 23.8648C29.3074 23.0053 29.7903 21.8395 29.7903 20.624C29.7903 19.4085 29.3074 18.2427 28.4479 17.3832C27.5884 16.5238 26.4227 16.0409 25.2072 16.0409L25.2072 16.0409L23.6795 16.0409V9.16621H25.2072H25.2072C28.246 9.16622 31.1603 10.3734 33.309 12.5221C35.4578 14.6709 36.665 17.5852 36.665 20.624C36.665 23.6628 35.4578 26.5771 33.309 28.7259ZM24.4433 25.2072C24.4433 25.2072 24.4433 25.2072 24.4433 25.2072H25.2071V32.0818H24.4433C24.4433 32.0818 24.4433 32.0818 24.4433 32.0818C23.5316 32.0818 22.6573 31.7197 22.0127 31.0751C21.3681 30.4304 21.0059 29.5561 21.0059 28.6445C21.0059 27.7329 21.3681 26.8586 22.0127 26.2139C22.6573 25.5693 23.5316 25.2072 24.4433 25.2072ZM19.0964 20.624H19.0964V33.2276C19.0964 35.126 17.5574 36.6649 15.659 36.6649C13.7606 36.6649 12.2217 35.126 12.2217 33.2276V20.6241H12.2217C12.2217 19.1194 12.518 17.6295 13.0939 16.2393C13.6697 14.8492 14.5136 13.5861 15.5776 12.5222C16.6415 11.4582 17.9046 10.6142 19.2948 10.0384C20.6849 9.46262 22.1748 9.16626 23.6795 9.16626V16.0409C23.0776 16.0409 22.4816 16.1595 21.9256 16.3898C21.3695 16.6201 20.8643 16.9577 20.4387 17.3833C20.0131 17.8089 19.6755 18.3141 19.4452 18.8702C19.2149 19.4262 19.0964 20.0222 19.0964 20.624Z" fill="black"/>
  <path d="M75.9414 38.5659C75.3478 38.5659 74.8641 39.0545 74.8641 39.6541C74.8641 40.2536 75.3478 40.7422 75.9414 40.7422C76.535 40.7422 77.0186 40.2536 77.0186 39.6541V38.7214C77.0186 38.6325 76.9527 38.5659 76.8647 38.5659H75.9414Z" fill="black"/>
  <path d="M79.1947 33.5605C78.525 33.5605 77.9815 34.1092 77.9815 34.7852V36.2501V39.6594C77.9815 40.7861 77.0692 41.707 75.9434 41.707C74.8176 41.707 73.9151 40.8056 73.9151 39.6692C73.9151 38.5426 74.8176 37.6217 75.9434 37.6217H77.1663C77.2439 37.6217 77.3022 37.5629 77.3022 37.4845V36.3971C77.3022 36.3187 77.2439 36.2599 77.1663 36.2599H75.9434C74.08 36.2599 72.566 37.7882 72.566 39.6692C72.566 41.5502 74.08 43.0785 75.9434 43.0785C77.8068 43.0785 79.3208 41.5502 79.3208 39.6692V36.2599V33.6977C79.3306 33.6193 79.2723 33.5605 79.1947 33.5605Z" fill="black"/>
  <path d="M82.9694 36.2598C81.6883 36.2598 80.611 37.0631 80.1743 38.1897C80.1452 38.2387 80.1257 38.2975 80.1063 38.3563C79.9511 38.7678 79.8734 39.2184 79.8734 39.6593C79.8734 40.0511 79.9413 40.4332 80.0578 40.7957C80.4169 42.1085 81.6106 43.0686 83.0276 43.0686H83.0955C84.3572 43.0686 85.4539 42.3044 85.9197 41.1974C85.9586 41.1092 85.8906 41.0112 85.7936 41.0112H84.5998C84.5513 41.0112 84.5125 41.0406 84.4834 41.07C84.1728 41.4913 83.6778 41.7656 83.1247 41.7656H82.9208C82.1153 41.7656 81.4359 41.1876 81.271 40.4332C81.271 40.4234 81.2613 40.4136 81.2613 40.4038C81.2613 40.3255 81.3195 40.2667 81.3971 40.2667H85.8227C85.9003 40.2667 85.9586 40.2079 85.9586 40.1295V39.385V39.3556V39.2674C85.9683 37.6117 84.6192 36.2598 82.9694 36.2598ZM84.4446 39.0519H81.4359C81.3583 39.0519 81.3001 38.9931 81.3001 38.9147C81.3001 38.9049 81.3001 38.8853 81.3098 38.8853C81.4748 38.1212 82.1444 37.5529 82.95 37.5529C83.7555 37.5529 84.4251 38.131 84.5901 38.8853C84.5901 38.8951 84.5998 38.9049 84.5998 38.9147C84.5804 38.9931 84.5222 39.0519 84.4446 39.0519Z" fill="black"/>
  <path d="M89.2288 38.974C89.0735 38.9348 88.3845 38.7879 87.9963 38.5332C87.8313 38.4254 87.7245 38.2882 87.7245 38.1315C87.7245 37.8082 88.1515 37.5535 88.6756 37.5535C89.1123 37.5535 89.4811 37.7396 89.5879 37.9747C89.617 38.0433 89.6753 38.0923 89.7432 38.0923H90.8302C90.9078 38.0923 90.966 38.0237 90.9563 37.9551C90.8496 36.995 89.8694 36.2505 88.6659 36.2505C87.3945 36.2505 86.3658 37.093 86.3658 38.1217C86.3658 38.9642 87.0548 39.6794 87.9963 39.9145L89.0444 40.2476C89.452 40.3554 89.7529 40.6493 89.7529 40.9824C89.7529 41.4134 89.2676 41.7661 88.6659 41.7661C88.1418 41.7661 87.7148 41.5016 87.608 41.1391C87.5886 41.0705 87.5304 41.0118 87.4625 41.0118H86.3755C86.2978 41.0118 86.2396 41.0803 86.2493 41.1489C86.3561 42.2168 87.3945 43.0593 88.6756 43.0593C90.0149 43.0593 91.1116 42.1286 91.1116 40.9824C91.1116 40.0125 90.2964 39.1895 89.2288 38.974Z" fill="black"/>
  <path d="M95.295 36.2599H93.9363C93.8587 36.2599 93.8004 36.2011 93.8004 36.1228V35.0319C93.8004 34.9536 93.7422 34.8948 93.6646 34.8948H92.5776C92.4999 34.8948 92.4417 34.9536 92.4417 35.0319V36.1228C92.4417 36.2011 92.3835 36.2599 92.3058 36.2599H91.4906C91.413 36.2599 91.3547 36.3187 91.3547 36.3971V37.416C91.3547 37.4943 91.413 37.5531 91.4906 37.5531H92.3058C92.3835 37.5531 92.4417 37.6119 92.4417 37.6903V40.3452C92.4417 40.7077 92.5097 41.0506 92.6455 41.3837C92.7814 41.7168 92.9755 42.0107 93.2375 42.2654C93.4899 42.5201 93.781 42.7258 94.111 42.8532C94.441 42.9904 94.7904 43.0589 95.1398 43.0589H95.2756C95.3533 43.0589 95.4115 43.0002 95.4115 42.9218V41.8343C95.4115 41.756 95.3533 41.6972 95.2756 41.6972H95.1398C94.9554 41.6972 94.7807 41.6678 94.6254 41.5894C94.4604 41.5208 94.3051 41.4229 94.1886 41.2955C94.0625 41.1681 93.9654 41.0114 93.8975 40.8546C93.8296 40.6881 93.7907 40.5118 93.7907 40.3354V37.6903C93.7907 37.6119 93.849 37.5531 93.9266 37.5531H95.2853C95.363 37.5531 95.4212 37.4943 95.4212 37.416V36.3971C95.4406 36.3187 95.3727 36.2599 95.295 36.2599Z" fill="black"/>
  <path d="M101.477 36.2598H100.352C100.293 36.2598 100.235 36.299 100.225 36.3675L98.7697 41.8244C98.76 41.8832 98.7017 41.9321 98.6435 41.9321C98.5756 41.9321 98.527 41.8832 98.5173 41.8244L97.0615 36.3675C97.0421 36.3087 96.9936 36.2598 96.9354 36.2598H95.8096C95.7222 36.2598 95.6543 36.3479 95.6834 36.4263L97.2459 42.2848C97.2556 42.3436 97.3139 42.3926 97.3721 42.3926H98.4397C98.5173 42.3926 98.5756 42.4514 98.5756 42.5297C98.5756 42.5395 98.5756 42.5591 98.5658 42.5591L98.4203 43.1176C98.3135 43.4996 98.1 43.8229 97.7894 44.058C97.4886 44.2932 97.1101 44.4205 96.7219 44.4205H95.785C95.7073 44.4205 95.6491 44.4793 95.6491 44.5577V45.6451C95.6491 45.7235 95.7073 45.7823 95.785 45.7823H96.7219C97.4012 45.7823 98.0612 45.557 98.6047 45.1357C99.1482 44.7144 99.5364 44.1266 99.7111 43.4604L101.584 36.4165C101.61 36.3273 101.574 36.2598 101.477 36.2598Z" fill="black"/>
  <path d="M61.0794 42.9305C60.5332 42.9305 60.0402 42.792 59.6003 42.5149C59.1679 42.23 58.8455 41.8461 58.6331 41.3632L58.7469 41.197V42.788H58.0529V33.9424H58.7469V38.0743L58.6331 37.8487C58.8607 37.3896 59.1869 37.0255 59.6116 36.7564C60.044 36.4793 60.5332 36.3408 61.0794 36.3408C61.6483 36.3408 62.1565 36.4833 62.604 36.7682C63.0591 37.0532 63.4156 37.445 63.6735 37.9437C63.9314 38.4424 64.0604 39.0044 64.0604 39.6297C64.0604 40.2551 63.9314 40.8171 63.6735 41.3157C63.4156 41.8144 63.0591 42.2102 62.604 42.5031C62.1565 42.788 61.6483 42.9305 61.0794 42.9305ZM61.0566 42.2181C61.4966 42.2181 61.8872 42.1073 62.2285 41.8857C62.5699 41.6561 62.8392 41.3474 63.0364 40.9595C63.2336 40.5638 63.3322 40.1205 63.3322 39.6297C63.3322 39.139 63.2336 38.6996 63.0364 38.3118C62.8392 37.9239 62.5699 37.6192 62.2285 37.3975C61.8872 37.168 61.4966 37.0532 61.0566 37.0532C60.6318 37.0532 60.245 37.168 59.8961 37.3975C59.5472 37.6192 59.2703 37.9239 59.0655 38.3118C58.8607 38.6996 58.7583 39.1429 58.7583 39.6416C58.7583 40.1244 58.8607 40.5638 59.0655 40.9595C59.2703 41.3474 59.5472 41.6561 59.8961 41.8857C60.245 42.1073 60.6318 42.2181 61.0566 42.2181Z" fill="#555555"/>
  <path d="M65.3706 45.4002C65.2644 45.4002 65.1469 45.3883 65.0179 45.3646C64.8965 45.3487 64.779 45.321 64.6652 45.2814V44.6165C64.7486 44.6403 64.8472 44.6601 64.961 44.6759C65.0824 44.6917 65.1962 44.6996 65.3024 44.6996C65.674 44.6917 65.9623 44.5967 66.1671 44.4147C66.3795 44.2326 66.5729 43.9318 66.7474 43.5123L67.1797 42.4556V43.1205L64.6197 36.4714H65.382L67.5779 42.2062H67.3049L69.5008 36.4714H70.2745L67.4528 43.6667C67.3466 43.9279 67.2063 44.193 67.0318 44.4622C66.8573 44.7313 66.6336 44.9529 66.3605 45.1271C66.095 45.3091 65.7651 45.4002 65.3706 45.4002Z" fill="#555555"/>
  <path d="M58.0529 31.1925H62.8651V23.4287C63.4854 24.0062 64.2233 24.4447 65.0788 24.7441C65.9557 25.0221 66.8861 25.1611 67.8699 25.1611C69.5809 25.1611 71.1102 24.7548 72.4576 23.942C73.805 23.1293 74.8637 22.0278 75.6337 20.6376C76.425 19.2474 76.8207 17.7075 76.8207 16.0178C76.8207 14.3068 76.425 12.7669 75.6337 11.398C74.8423 10.0078 73.7729 8.90636 72.4255 8.09362C71.0781 7.28088 69.5702 6.87451 67.902 6.87451C65.5707 6.87451 63.7848 7.61239 62.5443 9.08816V7.25949H58.0529V31.1925ZM67.2924 20.8301C65.9878 20.8301 64.9184 20.3916 64.0842 19.5147C63.2715 18.6165 62.8651 17.4508 62.8651 16.0178C62.8651 14.6062 63.2715 13.4513 64.0842 12.553C64.9184 11.6547 65.9878 11.2056 67.2924 11.2056C68.6185 11.2056 69.7093 11.6654 70.5648 12.5851C71.4203 13.4834 71.848 14.6276 71.848 16.0178C71.848 17.4294 71.4203 18.5844 70.5648 19.4827C69.7093 20.381 68.6185 20.8301 67.2924 20.8301Z" fill="black"/>
  <path d="M84.4193 25.1611C86.6009 25.1611 88.3547 24.4874 89.6808 23.14V24.7762H94.1722V13.2267C94.1722 11.9648 93.8514 10.8634 93.2098 9.92228C92.5895 8.95983 91.7126 8.21125 90.5791 7.67656C89.4455 7.14186 88.1408 6.87451 86.6651 6.87451C84.8043 6.87451 83.1682 7.30227 81.7566 8.15778C80.3663 9.0133 79.4146 10.1682 78.9013 11.6226L82.7511 13.4513C83.0505 12.6813 83.5211 12.0611 84.1627 11.5905C84.8257 11.12 85.585 10.8847 86.4405 10.8847C87.3388 10.8847 88.0446 11.1093 88.5579 11.5585C89.0926 12.0076 89.3599 12.5637 89.3599 13.2267V13.7079L84.5156 14.4779C82.4196 14.8201 80.8583 15.4724 79.8316 16.4349C78.805 17.3973 78.2917 18.6165 78.2917 20.0922C78.2917 21.6749 78.8371 22.9154 79.9279 23.8137C81.0401 24.712 82.5372 25.1611 84.4193 25.1611ZM83.2644 19.9318C83.2644 19.3543 83.4462 18.9159 83.8098 18.6165C84.1734 18.2956 84.6974 18.0711 85.3818 17.9427L89.3599 17.2369V17.7823C89.3599 18.8517 88.9964 19.7607 88.2692 20.5093C87.542 21.2579 86.5795 21.6321 85.3818 21.6321C84.7829 21.6321 84.2803 21.4824 83.874 21.183C83.4676 20.8836 83.2644 20.4665 83.2644 19.9318Z" fill="black"/>
  <path d="M105.658 31.8342C107.347 31.8342 108.834 31.492 110.117 30.8075C111.422 30.1231 112.448 29.1714 113.197 27.9523C113.946 26.7545 114.32 25.3857 114.32 23.8458V7.25949H109.828V9.08816C108.588 7.61239 106.888 6.87451 104.727 6.87451C103.123 6.87451 101.69 7.23811 100.428 7.96529C99.1665 8.69248 98.172 9.69771 97.4448 10.981C96.7176 12.2429 96.354 13.6972 96.354 15.3441C96.354 16.991 96.7176 18.4667 97.4448 19.7714C98.172 21.0547 99.1772 22.0706 100.461 22.8192C101.744 23.5464 103.198 23.91 104.824 23.91C106.791 23.91 108.353 23.3325 109.508 22.1775V23.8458C109.508 24.9793 109.165 25.8669 108.481 26.5086C107.797 27.1716 106.855 27.5031 105.658 27.5031C104.653 27.5031 103.786 27.2679 103.059 26.7973C102.332 26.3268 101.851 25.6851 101.615 24.8724L97.1561 26.4444C97.5197 27.5352 98.1078 28.4763 98.9206 29.2676C99.7547 30.0804 100.749 30.7113 101.904 31.1604C103.059 31.6096 104.31 31.8342 105.658 31.8342ZM105.497 19.5468C104.278 19.5468 103.273 19.1618 102.482 18.3919C101.712 17.6219 101.327 16.6274 101.327 15.4083C101.327 14.1678 101.712 13.1625 102.482 12.3926C103.273 11.6012 104.278 11.2056 105.497 11.2056C106.695 11.2056 107.658 11.5905 108.385 12.3605C109.133 13.1305 109.508 14.1464 109.508 15.4083C109.508 16.6488 109.133 17.654 108.385 18.424C107.658 19.1725 106.695 19.5468 105.497 19.5468Z" fill="black"/>
  <path d="M125.659 25.1611C127.455 25.1611 129.027 24.7762 130.375 24.0062C131.722 23.2148 132.663 22.1775 133.198 20.8943L129.348 19.0656C129.006 19.6645 128.525 20.135 127.904 20.4772C127.306 20.8194 126.578 20.9905 125.723 20.9905C124.547 20.9905 123.584 20.659 122.836 19.996C122.087 19.333 121.649 18.456 121.52 17.3653H133.775C133.861 17.13 133.914 16.852 133.936 16.5311C133.979 16.1889 134 15.8467 134 15.5045C134 13.879 133.658 12.4247 132.973 11.1414C132.31 9.83673 131.337 8.79942 130.054 8.02946C128.771 7.25949 127.199 6.87451 125.338 6.87451C123.67 6.87451 122.173 7.27019 120.846 8.06154C119.52 8.85289 118.462 9.93298 117.67 11.3018C116.9 12.6706 116.515 14.2319 116.515 15.9857C116.515 17.6754 116.89 19.2153 117.638 20.6055C118.387 21.9957 119.446 23.1079 120.814 23.942C122.183 24.7548 123.798 25.1611 125.659 25.1611ZM125.338 10.7243C126.322 10.7243 127.135 11.0131 127.776 11.5905C128.418 12.168 128.792 12.9166 128.899 13.8363H121.616C121.852 12.831 122.29 12.0611 122.932 11.5264C123.595 10.9917 124.397 10.7243 125.338 10.7243Z" fill="black"/>
</svg>
