<svg width="106" height="45" viewBox="0 0 106 45" fill="none" xmlns="http://www.w3.org/2000/svg">
<path d="M24.2062 0C21.7607 0 19.776 1.98336 19.776 4.42714V9.72323V22.0484C19.776 26.1214 16.4446 29.4506 12.3334 29.4506C8.2223 29.4506 4.92629 26.1922 4.92629 22.0838C4.92629 18.0108 8.2223 14.6816 12.3334 14.6816H16.799C17.0825 14.6816 17.2952 14.4691 17.2952 14.1858V10.2545C17.2952 9.97115 17.0825 9.75865 16.799 9.75865H12.3334C5.52878 9.75865 0 15.2837 0 22.0838C0 28.8839 5.52878 34.409 12.3334 34.409C19.1381 34.409 24.6669 28.8839 24.6669 22.0838V9.75865V0.49584C24.7023 0.212503 24.4897 0 24.2062 0Z" fill="#2E4399"/>
<path d="M37.9893 9.75806C33.311 9.75806 29.3771 12.6623 27.7823 16.7352C27.6759 16.9123 27.6051 17.1248 27.5342 17.3373C26.9671 18.8248 26.6836 20.454 26.6836 22.0478C26.6836 23.4645 26.9317 24.8458 27.357 26.1562C28.6683 30.9021 33.0275 34.373 38.2019 34.373H38.45C43.0573 34.373 47.0621 31.6104 48.7633 27.6083C48.9051 27.2895 48.657 26.9354 48.3026 26.9354H43.9433C43.7661 26.9354 43.6244 27.0416 43.518 27.1479C42.3839 28.6708 40.5764 29.6625 38.5563 29.6625H37.812C34.8704 29.6625 32.3896 27.5729 31.7871 24.8458C31.7871 24.8103 31.7516 24.7749 31.7516 24.7395C31.7516 24.4562 31.9643 24.2437 32.2478 24.2437H48.4089C48.6924 24.2437 48.9051 24.0312 48.9051 23.7478V21.0561V20.9499V20.6311C48.9405 14.6456 44.0142 9.75806 37.9893 9.75806ZM43.3763 19.8519H32.3896C32.1061 19.8519 31.8934 19.6394 31.8934 19.3561C31.8934 19.3207 31.8934 19.2499 31.9289 19.2499C32.5313 16.4873 34.9768 14.4331 37.9184 14.4331C40.86 14.4331 43.3054 16.5227 43.9079 19.2499C43.9079 19.2853 43.9433 19.3207 43.9433 19.3561C43.8724 19.6394 43.6598 19.8519 43.3763 19.8519Z" fill="#2E4399"/>
<path d="M60.8505 19.5703C60.2835 19.4287 57.7672 18.8974 56.3495 17.9766C55.747 17.587 55.3572 17.0911 55.3572 16.5245C55.3572 15.3557 56.9166 14.4348 58.8304 14.4348C60.4253 14.4348 61.772 15.1078 62.1619 15.9578C62.2682 16.2057 62.4808 16.3828 62.7289 16.3828H66.6983C66.9818 16.3828 67.1945 16.1349 67.159 15.8869C66.7692 12.4161 63.1896 9.72437 58.795 9.72437C54.1522 9.72437 50.3955 12.7702 50.3955 16.489C50.3955 19.5349 52.9118 22.1204 56.3495 22.9704L60.1772 24.1746C61.6657 24.5641 62.7644 25.6267 62.7644 26.8308C62.7644 28.3892 60.9923 29.6642 58.795 29.6642C56.8812 29.6642 55.3218 28.708 54.9319 27.3975C54.861 27.1496 54.6484 26.9371 54.4003 26.9371H50.4309C50.1474 26.9371 49.9347 27.185 49.9702 27.4329C50.36 31.2934 54.1522 34.3393 58.8304 34.3393C63.7213 34.3393 67.7261 30.9746 67.7261 26.8308C67.7261 23.3245 64.749 20.3495 60.8505 19.5703Z" fill="#2E4399"/>
<path d="M83.0028 9.75861H78.0411C77.7575 9.75861 77.5449 9.54611 77.5449 9.26277V5.3192C77.5449 5.03587 77.3322 4.82336 77.0487 4.82336H73.0793C72.7958 4.82336 72.5832 5.03587 72.5832 5.3192V9.26277C72.5832 9.54611 72.3705 9.75861 72.087 9.75861H69.1099C68.8264 9.75861 68.6138 9.97111 68.6138 10.2545V13.9378C68.6138 14.2212 68.8264 14.4337 69.1099 14.4337H72.087C72.3705 14.4337 72.5832 14.6462 72.5832 14.9295V24.5276C72.5832 25.838 72.8312 27.0776 73.3274 28.2818C73.8236 29.486 74.5324 30.5485 75.4893 31.4693C76.4108 32.3902 77.474 33.1339 78.679 33.5944C79.884 34.0902 81.1599 34.3381 82.4357 34.3381H82.9319C83.2154 34.3381 83.4281 34.1256 83.4281 33.8423V29.911C83.4281 29.6276 83.2154 29.4151 82.9319 29.4151H82.4357C81.7624 29.4151 81.1244 29.3089 80.5574 29.0255C79.9549 28.7776 79.3878 28.4235 78.9625 27.963C78.5018 27.5026 78.1474 26.9359 77.8993 26.3693C77.6512 25.7672 77.5094 25.1297 77.5094 24.4921V14.9295C77.5094 14.6462 77.7221 14.4337 78.0056 14.4337H82.9673C83.2509 14.4337 83.4635 14.2212 83.4635 13.9378V10.2545C83.5344 9.97111 83.2863 9.75861 83.0028 9.75861Z" fill="#2E4399"/>
<path d="M105.58 9.75806H101.469C101.256 9.75806 101.044 9.89973 101.008 10.1476L95.692 29.875C95.6565 30.0875 95.4439 30.2646 95.2312 30.2646C94.9831 30.2646 94.8059 30.0875 94.7705 29.875L89.4544 10.1476C89.3835 9.93514 89.2063 9.75806 88.9936 9.75806H84.8825C84.5635 9.75806 84.3154 10.0768 84.4217 10.3601L90.1277 31.5396C90.1632 31.7521 90.3758 31.9292 90.5885 31.9292H94.487C94.7705 31.9292 94.9831 32.1417 94.9831 32.425C94.9831 32.4604 94.9831 32.5313 94.9477 32.5313L94.4161 34.5501C94.0262 35.9313 93.2465 37.1001 92.1124 37.9501C91.0138 38.8001 89.6316 39.2605 88.2139 39.2605H84.7926C84.509 39.2605 84.2964 39.473 84.2964 39.7564V43.6877C84.2964 43.971 84.509 44.1835 84.7926 44.1835H88.2139C90.6948 44.1835 93.1048 43.3689 95.0895 41.846C97.0742 40.3231 98.4918 38.198 99.1297 35.7897L105.97 10.3247C106.065 10.0022 105.934 9.75806 105.58 9.75806Z" fill="#2E4399"/>
<path d="M12.3673 18.6481C10.4534 18.6481 8.89404 20.2064 8.89404 22.119C8.89404 24.0315 10.4534 25.5898 12.3673 25.5898C14.2811 25.5898 15.8405 24.0315 15.8405 22.119V19.1439C15.8405 18.8606 15.6278 18.6481 15.3443 18.6481H12.3673Z" fill="#FF9E2D"/>
</svg>
